<?xml version="1.0" encoding="utf-8"?>
<!-- Svg Vector Icons : http://www.onlinewebfonts.com/icon -->
<!DOCTYPE svg PUBLIC "-//W3C//DTD SVG 1.1//EN" "http://www.w3.org/Graphics/SVG/1.1/DTD/svg11.dtd">
<svg version="1.1" xmlns="http://www.w3.org/2000/svg" xmlns:xlink="http://www.w3.org/1999/xlink" fill="#3a0000" x="0px" y="0px" viewBox="0 0 1000 1000" enable-background="new 0 0 1000 1000" xml:space="preserve">
<g><path d="M922,98.4c0.9-6.4-1.8-12.5-6.6-16.2c-10.8-27.3-37.6-47.2-79.7-59C804.4,14.5,764.5,10,717.1,10v8.8c0,0,0,0,0,0V10c-11.8,0-24,0.3-36.3,0.8c-7.3,0.3-13.6,5.1-15.9,12c-25.4,75.4-58.2,150.6-97.4,223.4c-4.2,7.7-2,17.3,5.1,22.5l85.5,62.9c-18.2,112.1-74.9,211.6-168.4,295.8c-56.8,51.1-111.2,81.2-132.6,92.1l-88.2-70.4c-3.2-2.6-7.1-3.8-11-3.8c-4.2,0-8.3,1.5-11.6,4.4c-50,43.9-104,85.2-160.6,122.7c-5.8,3.9-8.8,10.8-7.6,17.7c4.3,25,13.4,62.6,31.8,99.6c22.2,44.7,52.6,77.8,90.3,98.3c2.6,1.4,5.5,2.1,8.4,2.1c2.1,0,4.2-0.4,6.3-1.2c94.9-36.2,184.1-84.7,265.1-144.2C559,786.6,630,718.3,691,641.6c60.5-76,110.7-159.9,149.3-249.1c38.2-88.3,64.8-181.5,79-277c1.5-2.8,2.2-6,2-9.4c0-0.7-0.1-1.4-0.2-2.1c0-0.2,0.1-0.3,0.1-0.5C921.4,102.1,921.7,100.3,922,98.4z"/></g>
</svg>
